<?xml version="1.0" encoding="utf-8"?>
<!-- Generator: Adobe Illustrator 22.1.0, SVG Export Plug-In . SVG Version: 6.00 Build 0)  -->
<svg version="1.1" id="Capa_1" xmlns="http://www.w3.org/2000/svg" xmlns:xlink="http://www.w3.org/1999/xlink" x="0px" y="0px"
	 viewBox="0 0 512 512" style="enable-background:new 0 0 512 512;" xml:space="preserve">
<g>
	<circle cx="252.9" cy="45.1" r="19.6"/>
	<circle cx="252.6" cy="466.2" r="19.6"/>
	<circle cx="462.1" cy="254" r="13.9"/>
	<circle cx="47" cy="255" r="13.9"/>
	<rect x="-0.4" y="148.4" transform="matrix(0.7071 -0.7071 0.7071 0.7071 -64.683 148.9545)" width="295.7" height="8.3"/>
	<rect x="212.5" y="355" transform="matrix(0.7071 -0.7071 0.7071 0.7071 -148.3728 360.0374)" width="295.7" height="8.3"/>
	<rect x="212.5" y="148.4" transform="matrix(0.7071 0.7071 -0.7071 0.7071 213.4375 -210.1707)" width="295.7" height="8.3"/>
	<rect x="1.9" y="359" transform="matrix(0.7071 0.7071 -0.7071 0.7071 300.6738 0.4364)" width="295.7" height="8.3"/>
	<rect x="120.3" y="288.3" transform="matrix(0.7071 -0.7071 0.7071 0.7071 -143.4849 238.4691)" width="191.6" height="8.3"/>
	<rect x="170" y="129.7" transform="matrix(0.1568 0.9876 -0.9876 0.1568 356.3644 -149.6242)" width="191.6" height="8.3"/>
	<rect x="279.3" y="238.5" transform="matrix(-0.9887 -0.1501 0.1501 -0.9887 709.545 538.8652)" width="191.6" height="8.3"/>
</g>
</svg>
